<svg xmlns="http://www.w3.org/2000/svg" width="206.141" height="72" viewBox="0 0 206.141 72">
  <g id="Group_2676" data-name="Group 2676" transform="translate(-55.822 -363.893)">
    <g id="Component_13_1" data-name="Component 13 – 1" transform="translate(56 364)">
      <g id="Group_2675" data-name="Group 2675">
        <g id="Group_879" data-name="Group 879">
          <circle id="Ellipse_4" data-name="Ellipse 4" cx="36" cy="36" r="36" transform="translate(-0.178 -0.107)" fill="#fab028"/>
          <g id="Group_21" data-name="Group 21" transform="translate(23.741 18.459)">
            <rect id="Rectangle_1" data-name="Rectangle 1" width="69" height="4" transform="translate(30.081 0.434)" fill="#282832"/>
            <g id="Component_12_1" data-name="Component 12 – 1" transform="translate(0 0)">
              <path id="Path_5468" data-name="Path 5468" d="M204.414,34.534q6.774,1.625,9.192,3.6a4.344,4.344,0,0,1,1.684,3.542,5.8,5.8,0,0,1-.9,3.44q-2.326,3.252-8.174,3.252-8.2,0-9.189-5.538H192.78q1.846,8.819,13.429,8.819a15.431,15.431,0,0,0,8.619-2.278,8.891,8.891,0,0,0,4.161-7.952,7.657,7.657,0,0,0-3.348-6.633,24.655,24.655,0,0,0-7.729-3.079,38.813,38.813,0,0,1-6.973-2.253q-3.5-1.759-3.486-4.961a4.819,4.819,0,0,1,.755-2.818q2.007-3,7.057-3,7.153,0,8.2,4.512h3.882Q215.434,15.6,205.265,15.6a13.6,13.6,0,0,0-8.076,2.436q-3.435,2.436-3.439,7.348Q193.746,32.061,204.414,34.534ZM242.107,39.7a8.153,8.153,0,0,1-2.282,5.743,7.752,7.752,0,0,1-11.332,0,8.368,8.368,0,0,1,0-11.486,7.752,7.752,0,0,1,11.332,0A8.153,8.153,0,0,1,242.107,39.7ZM245.7,50.98V28.419h-3.589v3.853q-.3-.4-.641-.776a10.424,10.424,0,0,0-15.742,0,12.4,12.4,0,0,0,0,16.408,10.424,10.424,0,0,0,15.742,0q.339-.381.641-.776V50.98Zm19.28-17.9V28.419a5.669,5.669,0,0,0-2.256-.461q-3.787,0-5.589,4.2l-.154.923V28.419h-3.589V50.98h3.589V39.7a9.81,9.81,0,0,1,1.282-5,6.815,6.815,0,0,1,1.666-1.948,3.745,3.745,0,0,1,2.4-.795A3.882,3.882,0,0,1,264.976,33.085Zm22.3,6.615A8.153,8.153,0,0,1,285,45.443a7.752,7.752,0,0,1-11.332,0,8.368,8.368,0,0,1,0-11.486,7.752,7.752,0,0,1,11.332,0A8.153,8.153,0,0,1,287.281,39.7Zm3.589,11.281V28.419h-3.589v3.853q-.3-.4-.641-.776a10.424,10.424,0,0,0-15.742,0,12.4,12.4,0,0,0,0,16.408,10.424,10.424,0,0,0,15.742,0q.339-.381.641-.776V50.98Zm11.947,0,15.331-34.714H296.255v3.589H312.56L298.818,50.98Zm26.407,0,15.331-34.714H322.662v3.589h16.306L325.225,50.98Zm26.407,0,15.331-34.714H349.069v3.589h16.306L351.632,50.98Z" transform="translate(-192.78 -15.6)" fill="#282832"/>
            </g>
          </g>
        </g>
      </g>
    </g>
  </g>
</svg>
